<?xml version="1.0" encoding="utf-8"?>
<!-- Generator: Adobe Illustrator 26.0.2, SVG Export Plug-In . SVG Version: 6.00 Build 0)  -->
<svg version="1.1" xmlns="http://www.w3.org/2000/svg" xmlns:xlink="http://www.w3.org/1999/xlink" x="0px" y="0px"
	 viewBox="0 0 500 500" style="enable-background:new 0 0 500 500;" xml:space="preserve">
<style type="text/css">
	.st0{display:none;}
	.st1{display:inline;fill:#FFFFFF;}
	.st2{opacity:0.3;}
	.st3{fill:#0A234F;}
	.st4{fill:#294DA5;}
	.st5{fill:#DC4335;}
	.st6{fill:#FFFFFF;}
</style>
<g id="BACKGROUND" class="st0">
	<rect x="0.09" y="-0.06" class="st1" width="500" height="500"/>
</g>
<g id="OBJECTS">
	<path class="st6" d="M254.74,217.26v81.38h134.61c-5.43,34.92-40.7,102.4-134.61,102.4c-81.04,0-147.15-67.13-147.15-149.87
		c0-82.74,66.11-149.87,147.15-149.87c46.11,0,76.97,19.67,94.6,36.62l64.43-62.05c-41.36-38.66-94.94-62.05-159.03-62.05
		C123.53,13.83,17.4,119.96,17.4,251.17s106.13,237.34,237.35,237.34c136.99,0,227.86-96.29,227.86-231.92
		c0-15.6-1.7-27.47-3.73-39.34H254.74L254.74,217.26z"/>
</g>
<g id="DESIGNED_BY_FREEPIK">
</g>
</svg>
